<?xml version="1.0" encoding="UTF-8" standalone="no"?>
<!-- Created with Inkscape (http://www.inkscape.org/) -->

<svg
   xmlns:dc="http://purl.org/dc/elements/1.1/"
   xmlns:cc="http://creativecommons.org/ns#"
   xmlns:rdf="http://www.w3.org/1999/02/22-rdf-syntax-ns#"
   xmlns:svg="http://www.w3.org/2000/svg"
   xmlns="http://www.w3.org/2000/svg"
   xmlns:xlink="http://www.w3.org/1999/xlink"
   xmlns:sodipodi="http://sodipodi.sourceforge.net/DTD/sodipodi-0.dtd"
   xmlns:inkscape="http://www.inkscape.org/namespaces/inkscape"
   width="210mm"
   height="297mm"
   viewBox="0 0 210 297"
   version="1.1"
   id="svg8"
   inkscape:version="0.92.0 r15299"
   sodipodi:docname="Bombs.svg">
  <defs
     id="defs2">
    <inkscape:path-effect
       effect="skeletal"
       id="path-effect4498"
       is_visible="true"
       pattern="m 53.578125,7.1733631 c 0,-2.76 2.24,-5 5,-5 2.76,0 5,2.24 5,5 0,2.76 -2.24,4.9999999 -5,4.9999999 -2.76,0 -5,-2.2399999 -5,-4.9999999 z"
       copytype="single_stretched"
       prop_scale="0.26458333"
       scale_y_rel="false"
       spacing="0"
       normal_offset="0"
       tang_offset="0"
       prop_units="false"
       vertical_pattern="false"
       fuse_tolerance="0" />
    <filter
       inkscape:collect="always"
       style="color-interpolation-filters:sRGB"
       id="filter6126"
       x="-0.10424145"
       width="1.2084829"
       y="-0.11203972"
       height="1.2240794">
      <feGaussianBlur
         inkscape:collect="always"
         stdDeviation="0.60435113"
         id="feGaussianBlur6128" />
    </filter>
  </defs>
  <sodipodi:namedview
     id="base"
     pagecolor="#ffffff"
     bordercolor="#666666"
     borderopacity="1.0"
     inkscape:pageopacity="0.0"
     inkscape:pageshadow="2"
     inkscape:zoom="1.4"
     inkscape:cx="206.3383"
     inkscape:cy="599.33367"
     inkscape:document-units="mm"
     inkscape:current-layer="layer1"
     showgrid="false"
     inkscape:object-nodes="false"
     inkscape:window-width="1920"
     inkscape:window-height="1017"
     inkscape:window-x="1912"
     inkscape:window-y="-8"
     inkscape:window-maximized="1" />
  <metadata
     id="metadata5">
    <rdf:RDF>
      <cc:Work
         rdf:about="">
        <dc:format>image/svg+xml</dc:format>
        <dc:type
           rdf:resource="http://purl.org/dc/dcmitype/StillImage" />
        <dc:title></dc:title>
      </cc:Work>
    </rdf:RDF>
  </metadata>
  <g
     inkscape:label="Layer 1"
     inkscape:groupmode="layer"
     id="layer1">
    <path
       inkscape:export-xdpi="300"
       inkscape:export-ydpi="300"
       style="fill:#cf1b13;fill-opacity:1;stroke:none;stroke-width:0.26458332px;stroke-linecap:butt;stroke-linejoin:miter;stroke-opacity:1"
       d="m 49.053418,67.392262 2.88207,1.7009 2.59859,1.46465 2.50409,1.32292 2.03162,1.03943 1.65365,1.46466 0.8032,1.13393 -0.0945,1.13393 -0.28348,1.08668 -0.99219,0.8032 -1.03943,0.85045 -1.51191,0.23623 -2.03162,0.28348 -2.03162,-0.18898 h -2.03162 l -3.11831,-0.0473 -2.03162,0.33073 -1.74814,0.37797 -1.93713,0.99219 -0.94494,1.18118 -0.7087,1.5119 -0.51972,1.55915 v 1.84264 l 0.37798,1.37016 1.03943,1.98438 1.32292,1.46465 0.99219,1.13393 1.55915,0.85045 1.41741,0.66146 1.37016,0.42522 1.46466,0.14174 1.74814,0.28348 1.5119,0.42523 0.80321,0.37797 2.26785,-3.16555 -1.13393,-1.08668 -1.6064,-0.47247 -1.32291,-0.47247 -1.37017,-0.18899 -1.55915,-0.47247 -1.70089,-0.75595 -1.27567,-0.8032 -0.94494,-0.99219 -0.56696,-0.61421 -0.28349,-0.7087 0.0472,-1.13393 0.37798,-0.70871 1.13393,-0.56696 0.99218,-0.37798 1.18118,-0.33073 h 1.18117 l 1.22843,0.0945 h 1.46465 l 1.37017,0.0472 1.70089,-0.0472 1.55915,0.0472 1.32292,-0.23623 1.27567,-0.42523 1.41741,-0.51971 1.18117,-0.61421 0.85045,-0.66146 0.99219,-1.03944 0.51972,-1.03943 0.47246,-1.22842 0.18899,-1.22843 v -1.32291 l -0.23623,-1.27567 -0.56697,-1.27567 -0.66146,-0.94494 -1.08668,-0.99219 -0.94494,-0.56696 -1.88988,-1.13393 -1.5119,-0.8977 -1.37017,-0.7087 -0.99218,-0.47247 -0.94494,-0.47247 -1.08668,0.0472 -1.84264,0.0945 -1.55915,0.18899 z"
       id="path6629"
       inkscape:connector-curvature="0" />
    <circle
       r="30"
       cy="138.82825"
       cx="33.855358"
       id="circle6146"
       style="opacity:1;fill:#3d3d3d;fill-opacity:1;stroke:none;stroke-width:0.25697905;stroke-linecap:round;stroke-linejoin:round;stroke-miterlimit:4;stroke-dasharray:none;stroke-opacity:1"
       inkscape:export-xdpi="300"
       inkscape:export-ydpi="300" />
    <circle
       style="opacity:1;fill:#000000;fill-opacity:1;stroke:none;stroke-width:0.25697905;stroke-linecap:round;stroke-linejoin:round;stroke-miterlimit:4;stroke-dasharray:none;stroke-opacity:1"
       id="path6144"
       cx="34.913692"
       cy="138.29909"
       r="30"
       inkscape:export-xdpi="300"
       inkscape:export-ydpi="300" />
    <path
       style="opacity:1;fill:#cf1b13;fill-opacity:1;stroke:none;stroke-width:0.06692261;stroke-linecap:round;stroke-linejoin:round;stroke-miterlimit:4;stroke-dasharray:none;stroke-opacity:1"
       d="m 86.332594,113.76607 c -0.88067,-1.24442 -1.609153,-2.28838 -1.618853,-2.3199 -0.0097,-0.0315 0.394346,-0.32792 0.897877,-0.65866 0.503531,-0.33075 1.26415,-0.86025 1.690267,-1.17667 0.643461,-0.47782 0.839041,-0.66705 1.154073,-1.11663 0.768172,-1.09627 0.842825,-1.49903 0.547036,-2.95135 -0.131053,-0.64349 -0.25727,-1.01902 -0.587182,-1.74707 l -0.420245,-0.9274 -1.1517,-1.23488 c -0.659958,-0.70762 -1.543277,-1.56612 -2.068808,-2.010687 -0.805617,-0.681501 -1.034886,-0.834618 -1.885958,-1.259541 -1.662425,-0.830017 -2.520165,-1.14745 -3.425682,-1.267788 -0.548193,-0.07285 -1.023819,-0.09201 -1.57021,-0.06324 -0.656976,0.03458 -0.900506,0.01749 -1.504951,-0.105629 -1.37774,-0.280633 -3.585424,-1.317813 -4.880276,-2.292768 -1.54332,-1.162042 -2.426384,-2.353715 -3.032046,-4.091676 l -0.302825,-0.86896 -0.0069,-1.436574 -0.0069,-1.436573 0.251561,-0.734992 c 0.666261,-1.946629 2.366248,-3.356348 5.057032,-4.193556 0.899355,-0.279823 1.064709,-0.309173 2.305199,-0.409143 0.734992,-0.05924 2.283484,-0.154594 3.441094,-0.21191 5.035092,-0.249301 6.578939,-0.711954 8.311443,-2.490724 0.294053,-0.301906 0.335897,-0.383773 0.417955,-0.817748 0.07932,-0.419468 0.07759,-0.5548 -0.01323,-1.039445 -0.05743,-0.306453 -0.207616,-0.780566 -0.333759,-1.053584 -0.214,-0.463177 -0.26852,-0.524814 -0.814676,-0.921025 -0.914328,-0.6633 -4.610182,-2.433836 -8.970909,-4.297603 -1.267859,-0.541883 -2.332373,-1.001236 -2.365586,-1.020786 -0.100496,-0.05916 0.533618,-0.346258 1.697113,-0.768385 1.336083,-0.484743 1.812557,-0.613968 2.489997,-0.675309 0.506277,-0.04584 0.553299,-0.03655 1.9818,0.391485 1.452314,0.435176 2.294951,0.783532 4.816118,1.991038 0.970386,0.464764 2.636427,1.600104 3.472489,2.366361 l 0.64229,0.588667 0.412469,1.035669 c 0.647856,1.626698 0.715354,2.436751 0.41175,4.941398 -0.06468,0.533614 -0.09399,0.605692 -0.529815,1.30294 -0.958641,1.533676 -1.858777,2.367727 -3.374207,3.126489 -1.286775,0.644276 -3.440764,1.267976 -4.776748,1.383133 -2.394881,0.206428 -3.494148,0.270108 -4.677217,0.270944 -1.528766,0.0011 -3.012992,0.17236 -3.841999,0.443365 -0.514389,0.168153 -0.560358,0.200848 -1.219417,0.867307 l -0.684879,0.692565 9.79e-4,0.518459 c 5.3e-4,0.285152 0.04622,0.710332 0.101499,0.944846 0.221178,0.938281 1.226273,1.779971 3.379736,2.830269 1.370758,0.668554 1.529757,0.703471 4.034734,0.886055 l 1.469982,0.107148 1.369756,0.541626 c 1.775217,0.701953 2.167597,0.882444 3.264908,1.50182 1.726039,0.974265 3.351282,2.343756 5.039254,4.246266 0.904505,1.019466 1.325764,1.702026 1.968913,3.190206 0.576704,1.33444 0.73007,2.09151 0.820193,4.0488 0.08822,1.91594 0.02037,2.5682 -0.375616,3.61171 -0.201345,0.53058 -0.353976,0.77007 -1.171046,1.83748 -0.516739,0.67507 -1.244939,1.5431 -1.618223,1.92897 -0.621017,0.64196 -2.471979,2.27452 -2.573441,2.26979 -0.02363,-0.001 -0.763508,-1.02017 -1.644179,-2.2646 z"
       id="path5060"
       inkscape:connector-curvature="0"
       inkscape:export-xdpi="300"
       inkscape:export-ydpi="300" />
    <use
       id="use6302"
       inkscape:spray-origin="#path6300"
       xlink:href="#path6300"
       x="0"
       y="0"
       width="100%"
       height="100%"
       transform="translate(-17.778097,-2.6870835)"
       inkscape:export-xdpi="300"
       inkscape:export-ydpi="300" />
    <use
       id="use6308"
       inkscape:spray-origin="#path6300"
       xlink:href="#path6300"
       x="0"
       y="0"
       width="100%"
       height="100%"
       transform="translate(0.43746815,-21.336642)"
       inkscape:export-xdpi="300"
       inkscape:export-ydpi="300" />
    <use
       id="use6312"
       inkscape:spray-origin="#path6300"
       xlink:href="#path6300"
       x="0"
       y="0"
       width="100%"
       height="100%"
       transform="translate(8.787937,-11.602722)"
       inkscape:export-xdpi="300"
       inkscape:export-ydpi="300" />
    <use
       id="use6316"
       inkscape:spray-origin="#path6300"
       xlink:href="#path6300"
       x="0"
       y="0"
       width="100%"
       height="100%"
       transform="translate(-7.5518486,-6.9963326)"
       inkscape:export-xdpi="300"
       inkscape:export-ydpi="300" />
    <use
       id="use6328"
       inkscape:spray-origin="#path6300"
       xlink:href="#path6300"
       x="0"
       y="0"
       width="100%"
       height="100%"
       transform="translate(-27.454936,22.497527)"
       inkscape:export-xdpi="300"
       inkscape:export-ydpi="300" />
    <use
       id="use6334"
       inkscape:spray-origin="#path6300"
       xlink:href="#path6300"
       x="0"
       y="0"
       width="100%"
       height="100%"
       transform="translate(-58.296105,8.4953758)"
       inkscape:export-xdpi="300"
       inkscape:export-ydpi="300" />
    <use
       id="use6338"
       inkscape:spray-origin="#path6300"
       xlink:href="#path6300"
       x="0"
       y="0"
       width="100%"
       height="100%"
       transform="translate(-23.31271,0.38035182)"
       inkscape:export-xdpi="300"
       inkscape:export-ydpi="300" />
    <use
       id="use6344"
       inkscape:spray-origin="#path6300"
       xlink:href="#path6300"
       x="0"
       y="0"
       width="100%"
       height="100%"
       transform="translate(-4.4659441,25.943166)"
       inkscape:export-xdpi="300"
       inkscape:export-ydpi="300" />
    <use
       id="use6348"
       inkscape:spray-origin="#path6300"
       xlink:href="#path6300"
       x="0"
       y="0"
       width="100%"
       height="100%"
       transform="translate(9.768676,0.23638182)"
       inkscape:export-xdpi="300"
       inkscape:export-ydpi="300" />
    <use
       id="use6356"
       inkscape:spray-origin="#path6300"
       xlink:href="#path6300"
       x="0"
       y="0"
       width="100%"
       height="100%"
       transform="translate(6.300053,18.567956)"
       inkscape:export-xdpi="300"
       inkscape:export-ydpi="300" />
    <use
       transform="translate(47.19668,36.458422)"
       height="100%"
       width="100%"
       y="0"
       x="0"
       xlink:href="#path6300"
       inkscape:spray-origin="#path6300"
       id="use6565" />
    <use
       transform="translate(-21.653683,5.4256568)"
       height="100%"
       width="100%"
       y="0"
       x="0"
       xlink:href="#path6300"
       inkscape:spray-origin="#path6300"
       id="use6561"
       inkscape:export-xdpi="300"
       inkscape:export-ydpi="300" />
    <use
       inkscape:export-xdpi="300"
       inkscape:export-ydpi="300"
       id="use6669"
       inkscape:spray-origin="#path6300"
       xlink:href="#use6334"
       x="0"
       y="0"
       width="100%"
       height="100%"
       transform="rotate(-30.708457,-17.149555,174.64256)" />
    <use
       inkscape:export-xdpi="300"
       inkscape:export-ydpi="300"
       id="use6671"
       inkscape:spray-origin="#path6300"
       xlink:href="#use6334"
       x="0"
       y="0"
       width="100%"
       height="100%"
       transform="rotate(78.612233,-0.68974205,170.91827)" />
    <use
       inkscape:export-xdpi="300"
       inkscape:export-ydpi="300"
       id="use6677"
       inkscape:spray-origin="#path6300"
       xlink:href="#use6334"
       x="0"
       y="0"
       width="100%"
       height="100%"
       transform="rotate(-173.10197,0.43388232,146.09784)" />
    <use
       inkscape:export-xdpi="300"
       inkscape:export-ydpi="300"
       id="use6679"
       inkscape:spray-origin="#path6300"
       xlink:href="#use6334"
       x="0"
       y="0"
       width="100%"
       height="100%"
       transform="rotate(-54.213802,-2.9057762,120.85251)" />
    <use
       inkscape:export-xdpi="300"
       inkscape:export-ydpi="300"
       id="use6681"
       inkscape:spray-origin="#path6300"
       xlink:href="#use6334"
       x="0"
       y="0"
       width="100%"
       height="100%"
       transform="rotate(65.627538,-22.206616,147.15886)" />
    <path
       inkscape:export-xdpi="300"
       inkscape:export-ydpi="300"
       style="fill:#cf1b13;fill-opacity:1;stroke:none;stroke-width:0.26458332px;stroke-linecap:butt;stroke-linejoin:miter;stroke-opacity:1"
       d="m 105.92783,88.829608 1.32292,-0.28348 1.22842,-0.23623 1.22842,-0.28349 0.56697,0.0472 2.03162,1.37016 1.79538,1.22843 2.03163,1.65364 1.79538,1.55915 1.22843,1.18118 0.7087,1.5119 0.51972,1.74814 -0.0945,1.748142 -0.61421,1.84264 -0.7087,1.41741 -0.85045,0.85045 -1.27567,0.89769 -1.88988,0.8032 -1.88988,0.0945 -1.6064,0.0945 -1.65365,-0.18898 -2.78757,-0.28348 -1.51191,-0.33073 1.22843,-3.77976 1.6064,0.14174 1.18117,0.23623 1.79539,0.23623 1.6064,0.0472 1.32292,-0.28348 0.94494,-0.37797 0.66145,-0.42523 0.47247,-0.66146 0.28349,-0.755952 -0.14174,-0.94494 -0.14175,-0.8032 -0.7087,-1.03943 -0.8032,-1.03944 -1.37017,-0.99219 -1.79538,-1.32291 -1.65365,-1.22842 -1.6064,-1.22843 -0.94494,-1.08668 z"
       id="path6694"
       inkscape:connector-curvature="0" />
    <ellipse
       style="opacity:1;fill:#ffffff;fill-opacity:1;stroke:none;stroke-width:0.52419883;stroke-linecap:round;stroke-linejoin:round;stroke-miterlimit:4;stroke-dasharray:none;stroke-opacity:1"
       id="path6300"
       cx="50.501106"
       cy="135.192"
       rx="0.56075853"
       ry="0.7476781"
       inkscape:export-xdpi="300"
       inkscape:export-ydpi="300" />
    <use
       id="use6330"
       inkscape:spray-origin="#path6300"
       xlink:href="#path6300"
       x="0"
       y="0"
       width="100%"
       height="100%"
       transform="translate(-23.208096,-15.785991)"
       inkscape:export-xdpi="300"
       inkscape:export-ydpi="300" />
    <use
       id="use6336"
       inkscape:spray-origin="#path6300"
       xlink:href="#path6300"
       x="0"
       y="0"
       width="100%"
       height="100%"
       transform="translate(0.48506245,-14.721877)"
       inkscape:export-xdpi="300"
       inkscape:export-ydpi="300" />
    <use
       id="use6340"
       inkscape:spray-origin="#path6300"
       xlink:href="#path6300"
       x="0"
       y="0"
       width="100%"
       height="100%"
       transform="translate(-6.7926476,-14.241993)"
       inkscape:export-xdpi="300"
       inkscape:export-ydpi="300" />
    <use
       id="use6346"
       inkscape:spray-origin="#path6300"
       xlink:href="#path6300"
       x="0"
       y="0"
       width="100%"
       height="100%"
       transform="translate(7.2402471,11.230635)"
       inkscape:export-xdpi="300"
       inkscape:export-ydpi="300" />
    <use
       id="use6350"
       inkscape:spray-origin="#path6300"
       xlink:href="#path6300"
       x="0"
       y="0"
       width="100%"
       height="100%"
       transform="translate(3.3146641,9.6535815)"
       inkscape:export-xdpi="300"
       inkscape:export-ydpi="300" />
    <path
       inkscape:connector-curvature="0"
       id="path6549"
       d="m 52.772648,137.00173 -6.344257,-0.79304 -1.453895,-3.23821 1.189548,-2.24693 -0.264341,-1.51998 -3.700818,1.25564 -1.850412,-1.05738 -0.198254,-2.70954 1.057372,-2.70953 v -1.8504 l -1.982579,2.37909 -1.453893,2.18084 -1.586065,-0.19823 v -2.70954 -2.90778 l -0.660861,0.26433 v 2.77562 l -0.594773,2.44519 -1.255633,0.85911 -1.718239,-0.85911 -1.123461,-2.90779 -0.925207,-2.9078 h -0.462601 l -0.198257,1.51999 0.132177,2.44517 -0.19826,1.71825 -0.528688,1.3878 -0.726947,-1.32172 -0.594773,1.65216 -1.057378,-1.51998 -0.264341,1.9165 -2.180839,-2.04868 -1.71824,-0.85911 -1.784319,-1.58606 1.58606,4.29558 0.528693,2.51127 -0.06608,1.45389 -0.198259,2.18084 -1.387808,1.85041 -1.12346,1.4539 -2.841699,0.66085 -3.172131,1.51998 2.246926,0.59478 1.519978,0.13213 0.991288,0.19825 -1.586061,1.18956 1.718234,0.99129 h 1.784326 l 1.255633,2.04867 -0.991292,1.98258 -0.462601,0.92519 2.64344,-1.12346 1.255633,-0.13213 1.321724,1.78431 -0.132177,1.05737 0.925202,-0.33041 0.85912,1.18952 0.330431,1.85043 v 1.71823 l 1.189547,-0.92521 0.991292,-1.12346 1.057375,-0.26434 1.32172,0.4626 1.057379,0.9252 0.726947,1.71825 0.859119,1.98258 0.528686,-0.33043 v -1.32173 l 0.396514,-1.18956 1.05738,-0.85911 1.32172,-0.79302 2.3791,0.066 2.709523,1.85041 1.453895,1.05739 0.4626,0.13212 -0.330427,-1.78433 -0.726946,-2.04866 -0.462607,-1.98258 0.06608,-1.98258 0.39652,-1.3878 0.726947,-0.46261 1.652147,0.0661 0.726947,-0.0661 -0.396514,-1.12345 -0.991294,-0.26435 -0.4626,-1.0574 0.925206,-1.71822 1.387806,-1.98258 1.123461,-0.46259 2.511267,-0.59479 z"
       style="fill:#ffff54;fill-opacity:1;stroke:none;stroke-width:0.52337462px;stroke-linecap:butt;stroke-linejoin:miter;stroke-opacity:1"
       inkscape:export-xdpi="300"
       inkscape:export-ydpi="300" />
    <path
       inkscape:connector-curvature="0"
       id="path6551"
       d="m 30.118942,137.88081 -0.496093,0.33073 -0.779577,0.23624 -1.063058,0.28348 -0.826823,0.23624 -0.259858,0.16536 0.519718,0.25986 1.063056,0.0472 0.897694,-0.18898 0.448848,0.42522 0.354353,0.47247 0.04725,0.51972 -0.496094,0.47247 -0.354354,0.7087 -0.188986,0.54335 0.68508,-0.11812 0.73233,-0.25986 0.377976,-0.0709 0.330729,0.14174 0.259858,0.35435 0.165364,0.47247 -0.259858,0.54334 v 0.77958 l 0.33073,0.42522 0.590587,-0.37798 0.54334,-0.68508 0.377978,-0.7087 0.377976,-0.0945 0.307105,0.16537 0.472472,0.54334 0.118115,1.06306 0.0945,1.32291 0.09449,-0.0945 0.330729,-1.65365 0.496094,-0.56696 0.354354,-0.0945 0.519715,0.14174 0.496094,0.7087 0.59059,0.66146 0.54334,0.42522 0.165365,-0.54334 -0.165365,-0.85044 -0.188989,-0.4961 -0.472469,-0.68508 -0.141743,-0.44884 0.165365,-0.68509 0.4016,-0.23623 h 0.614212 l 0.259858,-0.0236 -0.637834,-0.54334 -0.07087,-0.51972 0.02363,-0.42522 0.330729,-0.37798 0.803199,-0.0945 1.299292,-0.33073 0.307107,-0.33073 -0.354354,-0.30711 -0.496094,0.0236 -0.590587,0.0709 -0.803198,0.0472 -0.566965,-0.0709 -0.141743,-0.59059 0.04725,-0.61421 -0.04725,-0.35436 0.637837,-0.42522 0.614211,-0.16536 -0.283482,-0.44885 -0.87407,0.25986 -0.519718,0.30711 -0.614212,0.0472 -0.614211,-0.23623 -0.188987,-0.25986 v -0.54334 l 0.236236,-0.68508 0.212611,-0.54335 0.04725,-0.4016 -0.307107,-0.23623 -0.519716,0.73233 -0.401601,0.7087 -0.330729,0.4016 -0.425222,0.37798 -0.472472,0.0945 -0.307104,-0.21261 -0.283483,-0.44885 -0.188989,-0.73232 0.02363,-0.59059 -0.212611,-0.75595 -0.496094,-0.33073 -0.09449,0.96856 0.07087,0.61421 -0.09449,0.61421 0.04725,0.4961 0.02363,0.49609 c 0,0 0.07087,0.28348 -0.02363,0.28348 -0.09449,0 -0.401601,0.14175 -0.401601,0.14175 l -0.283479,0.0709 -0.496094,-0.25985 -0.472472,-0.66146 -0.425222,-0.35436 -0.897695,-0.75595 -0.425222,-0.54334 0.519716,1.22843 0.4016,1.06305 0.188989,0.59059 0.165365,0.59059 z"
       style="fill:#ffffff;fill-opacity:1;stroke:none;stroke-width:0.26458332px;stroke-linecap:butt;stroke-linejoin:miter;stroke-opacity:1;filter:url(#filter6126)"
       inkscape:export-xdpi="300"
       inkscape:export-ydpi="300"
       transform="matrix(1.9781089,0,0,1.9781089,-33.538642,-136.61351)" />
    <path
       inkscape:connector-curvature="0"
       id="path6553"
       d="m 34.510301,146.02869 c -1.112082,-0.75568 -2.255269,-0.82982 -3.429773,-0.22246 -0.914351,0.47283 -0.796953,0.54687 -2.131521,-1.34448 -0.262192,-0.37159 -0.886708,-0.84691 -1.387808,-1.05629 -0.829312,-0.3465 -0.911089,-0.47833 -0.911089,-1.46863 0,-0.59835 -0.257911,-1.68746 -0.573138,-2.42023 -0.548708,-1.27551 -0.553726,-1.36209 -0.117753,-2.03159 0.438421,-0.67324 0.96292,-1.77817 1.304422,-2.74796 0.123894,-0.35178 0.465661,-0.46436 1.426834,-0.46996 0.974488,-0.006 1.492653,-0.1806 2.262711,-0.76349 0.856555,-0.64848 1.132071,-0.72608 1.934811,-0.54504 0.514822,0.11617 1.313612,0.10289 1.775093,-0.0294 1.226691,-0.35184 1.398311,-0.31504 2.353324,0.50441 0.477573,0.40979 1.254549,0.89988 1.726617,1.0891 0.693048,0.27782 0.929965,0.58537 1.230496,1.59739 0.204714,0.68933 0.52449,1.49717 0.710623,1.79521 0.279968,0.44832 0.258412,0.8734 -0.124822,2.46113 -0.254774,1.05558 -0.693141,2.36989 -0.974147,2.92071 -0.281004,0.55081 -0.512735,1.33335 -0.514963,1.73897 -0.0061,1.11889 -0.255208,1.30364 -1.996607,1.48108 -1.421328,0.1448 -1.713446,0.0892 -2.563326,-0.48834 z"
       style="opacity:1;fill:#fbf2d1;fill-opacity:1;stroke:none;stroke-width:0.2647604;stroke-linecap:round;stroke-linejoin:round;stroke-miterlimit:4;stroke-dasharray:none;stroke-opacity:1"
       inkscape:export-xdpi="300"
       inkscape:export-ydpi="300" />
    <path
       inkscape:connector-curvature="0"
       id="path6555"
       d="m 38.699675,147.58167 c -0.555338,-0.3007 -1.145311,-0.37321 -2.108322,-0.25916 -1.157552,0.13708 -1.470672,0.0659 -2.330722,-0.53015 -1.257079,-0.87115 -2.081614,-0.86978 -3.229018,0.006 -1.354101,1.03281 -2.002406,0.8341 -2.002406,-0.61378 0,-0.76448 -0.991591,-1.80204 -2.052801,-2.14796 -1.266748,-0.41293 -1.362015,-0.58632 -1.21155,-2.20519 0.125986,-1.35556 0.100233,-1.42349 -1.291776,-3.4065 -0.289049,-0.41179 -0.221697,-0.5726 0.498216,-1.18955 1.076313,-0.92238 1.414467,-1.62222 1.414467,-2.92733 0,-0.58255 0.09236,-1.11625 0.205215,-1.186 0.112865,-0.0698 0.685093,0.001 1.271606,0.15785 1.420339,0.3791 2.261607,0.12858 2.836383,-0.84433 0.544917,-0.92247 0.819698,-0.97208 2.032625,-0.367 0.822315,0.41022 0.96395,0.40697 2.318161,-0.0534 1.418393,-0.48211 1.448403,-0.48169 1.807461,0.0257 0.780087,1.10233 1.474778,1.67463 2.235572,1.84172 0.899372,0.19762 1.426237,0.9012 1.672218,2.2333 0.09299,0.50361 0.486388,1.24685 0.874208,1.65166 l 0.705129,0.73598 -0.548911,0.99181 c -0.301903,0.54549 -0.635842,1.40814 -0.742088,1.91701 -0.106249,0.50887 -0.431386,1.39559 -0.722535,1.97052 -0.440235,0.8693 -0.501256,1.3478 -0.362411,2.8417 0.184103,1.98102 0.08279,2.08945 -1.268721,1.35769 z m 0.331122,-1.41172 c 0.101749,-0.31163 0.04951,-0.33187 -0.243955,-0.0946 -0.205383,0.16616 -0.611328,0.36585 -0.902111,0.44393 -0.332158,0.0892 -0.241467,0.12419 0.243964,0.0946 0.424953,-0.0261 0.830903,-0.22585 0.902102,-0.44391 z m -8.944215,-0.13214 c -0.180998,-0.21809 -0.388555,-0.39651 -0.461251,-0.39651 -0.0727,0 0.01583,0.17842 0.196901,0.39651 0.180998,0.21808 0.388555,0.39652 0.461251,0.39652 0.0727,0 -0.01583,-0.17844 -0.196901,-0.39652 z M 26.6855,142.40307 c -0.0858,-0.53645 -0.176269,-0.67958 -0.240916,-0.38106 -0.09839,0.45434 0.08132,1.24017 0.283617,1.24017 0.05208,0 0.03287,-0.38659 -0.04271,-0.85911 z m 14.41426,-3.96515 c -0.07333,-0.18179 -0.133324,-0.0331 -0.133324,0.33041 0,0.36349 0.05999,0.51218 0.133324,0.33045 0.07333,-0.18179 0.07333,-0.47914 0,-0.66086 z M 25.6559,138.11549 c 0.06864,-0.35908 0.02302,-0.58996 -0.101361,-0.51309 -0.219022,0.1353 -0.329339,1.16593 -0.124796,1.16593 0.05574,0 0.157517,-0.29378 0.226157,-0.65284 z m 2.352067,-4.04923 c -0.19071,-0.0635 -0.472424,0.01 -0.626035,0.16378 -0.196169,0.19623 -0.09295,0.23057 0.346742,0.11555 0.357449,-0.0934 0.477275,-0.2133 0.279293,-0.27929 z m 3.803846,-1.32678 c -0.08139,-0.0813 -0.294687,-1.6e-4 -0.474001,0.1806 -0.259126,0.26108 -0.228766,0.29142 0.147982,0.14796 0.260698,-0.0993 0.40741,-0.24706 0.326021,-0.32846 z"
       style="opacity:1;fill:#faf4d2;fill-opacity:1;stroke:none;stroke-width:0.2647604;stroke-linecap:round;stroke-linejoin:round;stroke-miterlimit:4;stroke-dasharray:none;stroke-opacity:1"
       inkscape:export-xdpi="300"
       inkscape:export-ydpi="300" />
    <path
       inkscape:connector-curvature="0"
       id="path6557"
       d="m 33.680968,154.53491 c -1.443332,-3.16719 -3.151764,-3.80268 -5.068936,-1.88551 l -1.033976,1.03398 -0.265717,-1.71138 c -0.297868,-1.91848 -0.931597,-3.05034 -1.570579,-2.80514 -0.299668,0.11493 -0.413372,-0.006 -0.413372,-0.43785 0,-0.32806 -0.328255,-0.98965 -0.729452,-1.47023 l -0.729454,-0.87377 -1.581083,0.53376 c -0.869595,0.29359 -1.617377,0.49749 -1.661736,0.45313 -0.04436,-0.0444 0.176744,-0.61046 0.491335,-1.258 l 0.571989,-1.17731 -0.695384,-1.10156 c -0.596119,-0.94432 -0.825208,-1.10157 -1.604836,-1.10157 -0.970644,0 -2.256047,-0.47253 -2.256047,-0.82936 0,-0.11868 0.311802,-0.42014 0.692895,-0.66983 0.636082,-0.41677 0.652337,-0.46992 0.198257,-0.64837 -0.27205,-0.10702 -0.910977,-0.21179 -1.419839,-0.23306 -0.508863,-0.0213 -1.320729,-0.18198 -1.804144,-0.35702 l -0.878941,-0.31832 1.5398,-0.70413 c 0.846891,-0.38728 2.1578,-0.84005 2.913133,-1.00616 1.211895,-0.26655 1.499857,-0.46965 2.449676,-1.72769 1.399284,-1.85332 1.596045,-2.4232 1.596045,-4.62256 0,-1.63443 -0.576921,-3.95547 -1.770572,-7.12323 -0.08217,-0.21809 0.193361,-0.0825 0.612322,0.30134 0.418953,0.38381 1.237554,0.93796 1.81911,1.23142 0.581558,0.29347 1.406759,0.90132 1.833781,1.3508 0.888799,0.93555 1.206179,1.02309 1.206179,0.33262 0,-0.77492 0.29366,-0.85936 0.803548,-0.23108 l 0.473569,0.58353 0.194547,-0.77239 0.194547,-0.7724 0.45938,0.56732 0.459383,0.5673 0.335681,-0.8104 c 0.192172,-0.46397 0.321792,-1.76191 0.303192,-3.03607 -0.03198,-2.19168 0.275191,-3.8543 0.556666,-3.01281 1.861576,5.56525 1.881835,5.60926 2.779836,6.03926 0.777386,0.37224 0.955494,0.37583 1.568926,0.0314 0.812586,-0.45609 1.374067,-2.25126 1.382029,-4.41862 0.0026,-0.76329 0.124045,-1.38782 0.269442,-1.38782 0.159257,0 0.264347,1.09145 0.264347,2.74562 v 2.74561 l 0.812346,0.11931 c 0.736653,0.10815 0.908452,-0.0178 1.843728,-1.3578 0.56726,-0.81237 1.331187,-1.8339 1.697607,-2.27007 l 0.666231,-0.79303 0.0016,0.83719 c 5.26e-4,0.46048 -0.236606,1.39224 -0.527387,2.0706 -0.32378,0.75536 -0.528686,1.82074 -0.528686,2.74885 0,1.48428 0.02104,1.5273 1.022998,2.09042 l 1.022993,0.57496 1.529655,-0.52627 c 0.841316,-0.28946 1.689467,-0.52628 1.884789,-0.52628 0.527577,0 0.433055,1.14718 -0.202264,2.45486 l -0.557393,1.14729 0.808873,1.60238 0.808877,1.60237 3.091177,0.34452 3.091181,0.34455 -0.765298,0.61691 c -0.420921,0.3393 -1.241127,0.74111 -1.822686,0.8929 -2.613361,0.68214 -2.709231,0.74701 -3.935279,2.66334 -1.037214,1.62116 -1.150995,1.93776 -0.896896,2.49542 0.160068,0.3513 0.44617,0.63873 0.6358,0.63873 0.299816,0 0.892077,0.76904 0.892077,1.15835 0,0.0746 -0.621622,0.1717 -1.381385,0.21563 -1.161316,0.0673 -1.437358,0.18516 -1.732752,0.74076 -0.485058,0.91233 -0.241212,4.21286 0.453589,6.1394 0.9746,2.70237 0.83555,2.79888 -1.586758,1.10154 -2.541926,-1.78118 -3.899408,-2.0903 -5.317629,-1.21092 -1.625103,1.00762 -2.066209,1.5815 -2.066209,2.68805 0,1.68525 -0.471727,1.4813 -1.428153,-0.61743 z m 8.153941,-4.45863 c 0.54992,-0.78512 0.519926,-1.35738 -0.172353,-3.28785 l -0.583961,-1.62845 0.716081,-1.41532 c 0.393845,-0.77842 0.716081,-1.62958 0.716081,-1.89148 0,-0.85967 0.495877,-1.42832 1.644438,-1.88571 1.454715,-0.57933 2.056376,-1.13096 2.056376,-1.88539 0,-0.75432 -0.239497,-0.90189 -2.057013,-1.26737 -1.840337,-0.37006 -2.13271,-0.7889 -1.694458,-2.42747 0.442032,-1.65271 0.160641,-1.9632 -1.779247,-1.9632 -0.825458,0 -1.643582,-0.14282 -1.818048,-0.3172 -0.174468,-0.17448 -0.317213,-0.83654 -0.317213,-1.47128 0,-2.34327 -1.097736,-2.85123 -2.65767,-1.22977 -1.774532,1.8445 -2.56948,1.75128 -3.27891,-0.3846 -0.549328,-1.6539 -1.215668,-2.30045 -1.960185,-1.902 -0.581396,0.31117 -1.087086,1.75245 -1.089457,3.10514 -0.001,0.46213 -0.188158,1.02694 -0.416348,1.25512 -0.455338,0.45531 -0.686356,0.37969 -2.406928,-0.78793 -0.524039,-0.35561 -1.176657,-0.64658 -1.45026,-0.64658 -0.793835,0 -1.137346,1.08439 -0.78579,2.48054 0.718955,2.85523 0.46013,3.32699 -2.410951,4.39439 -2.900335,1.07829 -2.595103,2.49102 0.654343,3.02855 1.46054,0.24159 1.846251,0.93713 1.37704,2.48313 -0.204838,0.67492 -0.373714,1.37582 -0.37529,1.55755 -0.0055,0.63489 1.041112,1.3878 1.929196,1.3878 1.247169,0 1.730616,0.47543 2.007889,1.97451 0.236483,1.27853 0.987195,2.25501 1.733642,2.25501 0.180483,0 0.732338,-0.29485 1.226351,-0.65521 1.95305,-1.42466 2.04228,-1.4301 3.10907,-0.1899 1.082255,1.25824 1.38599,1.33351 2.343034,0.58069 0.943561,-0.74221 1.512014,-0.66452 2.901614,0.39654 1.398731,1.068 2.25597,1.16997 2.838927,0.33768 z"
       style="opacity:1;fill:#fee808;fill-opacity:1;stroke:none;stroke-width:0.2647604;stroke-linecap:round;stroke-linejoin:round;stroke-miterlimit:4;stroke-dasharray:none;stroke-opacity:1"
       inkscape:export-xdpi="300"
       inkscape:export-ydpi="300" />
    <use
       transform="translate(-15.506445,-1.549292)"
       height="100%"
       width="100%"
       y="0"
       x="0"
       xlink:href="#path6300"
       inkscape:spray-origin="#path6300"
       id="use6559"
       inkscape:export-xdpi="300"
       inkscape:export-ydpi="300" />
    <use
       transform="translate(-22.955237,-3.1293737)"
       height="100%"
       width="100%"
       y="0"
       x="0"
       xlink:href="#path6300"
       inkscape:spray-origin="#path6300"
       id="use6563"
       inkscape:export-xdpi="300"
       inkscape:export-ydpi="300" />
    <use
       transform="translate(-37.005611,-10.075806)"
       height="100%"
       width="100%"
       y="0"
       x="0"
       xlink:href="#path6300"
       inkscape:spray-origin="#path6300"
       id="use6567"
       inkscape:export-xdpi="300"
       inkscape:export-ydpi="300" />
    <use
       transform="translate(-10.806959,0.96211712)"
       height="100%"
       width="100%"
       y="0"
       x="0"
       xlink:href="#path6300"
       inkscape:spray-origin="#path6300"
       id="use6569"
       inkscape:export-xdpi="300"
       inkscape:export-ydpi="300" />
    <use
       transform="translate(-12.062953,4.8521851)"
       height="100%"
       width="100%"
       y="0"
       x="0"
       xlink:href="#path6300"
       inkscape:spray-origin="#path6300"
       id="use6571"
       inkscape:export-xdpi="300"
       inkscape:export-ydpi="300" />
    <ellipse
       style="opacity:1;fill:#ffff00;fill-opacity:1;stroke:none;stroke-width:0.52419883;stroke-linecap:round;stroke-linejoin:round;stroke-miterlimit:4;stroke-dasharray:none;stroke-opacity:1"
       id="ellipse6573"
       cx="35.338665"
       cy="115.42249"
       rx="0.46729878"
       ry="1.4953562"
       inkscape:export-xdpi="300"
       inkscape:export-ydpi="300" />
    <ellipse
       transform="rotate(-28.400247)"
       style="opacity:1;fill:#ffff00;fill-opacity:1;stroke:none;stroke-width:0.52419883;stroke-linecap:round;stroke-linejoin:round;stroke-miterlimit:4;stroke-dasharray:none;stroke-opacity:1"
       id="ellipse6575"
       cx="-48.286602"
       cy="155.05305"
       rx="0.46729878"
       ry="1.4953562"
       inkscape:export-xdpi="300"
       inkscape:export-ydpi="300" />
    <ellipse
       transform="rotate(-40.709666)"
       style="opacity:1;fill:#ffff00;fill-opacity:1;stroke:none;stroke-width:0.52419883;stroke-linecap:round;stroke-linejoin:round;stroke-miterlimit:4;stroke-dasharray:none;stroke-opacity:1"
       id="ellipse6577"
       cx="-63.152069"
       cy="105.91051"
       rx="0.46729878"
       ry="1.4953562"
       inkscape:export-xdpi="300"
       inkscape:export-ydpi="300" />
    <ellipse
       style="opacity:1;fill:#ffff00;fill-opacity:1;stroke:none;stroke-width:0.52419883;stroke-linecap:round;stroke-linejoin:round;stroke-miterlimit:4;stroke-dasharray:none;stroke-opacity:1"
       id="ellipse6579"
       cx="26.081543"
       cy="117.81988"
       rx="0.46729878"
       ry="1.4953562"
       inkscape:export-xdpi="300"
       inkscape:export-ydpi="300" />
    <ellipse
       transform="rotate(-40.709666)"
       style="opacity:1;fill:#ffff00;fill-opacity:1;stroke:none;stroke-width:0.52419883;stroke-linecap:round;stroke-linejoin:round;stroke-miterlimit:4;stroke-dasharray:none;stroke-opacity:1"
       id="ellipse6581"
       cx="-74.843613"
       cy="113.72309"
       rx="0.46729878"
       ry="1.4953562"
       inkscape:export-xdpi="300"
       inkscape:export-ydpi="300" />
    <ellipse
       ry="1.4953562"
       rx="0.46729878"
       cy="141.59586"
       cx="-54.101826"
       id="ellipse6583"
       style="opacity:1;fill:#ffff00;fill-opacity:1;stroke:none;stroke-width:0.52419883;stroke-linecap:round;stroke-linejoin:round;stroke-miterlimit:4;stroke-dasharray:none;stroke-opacity:1"
       transform="rotate(-40.709666)"
       inkscape:export-xdpi="300"
       inkscape:export-ydpi="300" />
    <ellipse
       ry="1.4953562"
       rx="0.46729878"
       cy="106.23799"
       cx="-68.141663"
       id="ellipse6585"
       style="opacity:1;fill:#ffff00;fill-opacity:1;stroke:none;stroke-width:0.52419883;stroke-linecap:round;stroke-linejoin:round;stroke-miterlimit:4;stroke-dasharray:none;stroke-opacity:1"
       transform="rotate(-40.709666)"
       inkscape:export-xdpi="300"
       inkscape:export-ydpi="300" />
    <ellipse
       ry="1.4953562"
       rx="0.46729878"
       cy="121.52068"
       cx="32.954483"
       id="ellipse6587"
       style="opacity:1;fill:#ffff00;fill-opacity:1;stroke:none;stroke-width:0.52419883;stroke-linecap:round;stroke-linejoin:round;stroke-miterlimit:4;stroke-dasharray:none;stroke-opacity:1"
       inkscape:export-xdpi="300"
       inkscape:export-ydpi="300" />
    <ellipse
       ry="1.4953562"
       rx="0.46729878"
       cy="119.12328"
       cx="38.114285"
       id="ellipse6589"
       style="opacity:1;fill:#ffff00;fill-opacity:1;stroke:none;stroke-width:0.52419883;stroke-linecap:round;stroke-linejoin:round;stroke-miterlimit:4;stroke-dasharray:none;stroke-opacity:1"
       inkscape:export-xdpi="300"
       inkscape:export-ydpi="300" />
    <ellipse
       transform="rotate(51.970491)"
       ry="1.4953562"
       rx="0.46729878"
       cy="77.760918"
       cx="124.91785"
       id="ellipse6591"
       style="opacity:1;fill:#ffff00;fill-opacity:1;stroke:none;stroke-width:0.52419883;stroke-linecap:round;stroke-linejoin:round;stroke-miterlimit:4;stroke-dasharray:none;stroke-opacity:1"
       inkscape:export-xdpi="300"
       inkscape:export-ydpi="300" />
    <ellipse
       transform="rotate(51.970491)"
       ry="1.4953562"
       rx="0.46729878"
       cy="76.297798"
       cx="136.88504"
       id="ellipse6593"
       style="opacity:1;fill:#ffff00;fill-opacity:1;stroke:none;stroke-width:0.52419883;stroke-linecap:round;stroke-linejoin:round;stroke-miterlimit:4;stroke-dasharray:none;stroke-opacity:1"
       inkscape:export-xdpi="300"
       inkscape:export-ydpi="300" />
    <ellipse
       transform="rotate(51.970491)"
       ry="1.4953562"
       rx="0.46729878"
       cy="80.884521"
       cx="129.01889"
       id="ellipse6595"
       style="opacity:1;fill:#ffff00;fill-opacity:1;stroke:none;stroke-width:0.52419883;stroke-linecap:round;stroke-linejoin:round;stroke-miterlimit:4;stroke-dasharray:none;stroke-opacity:1"
       inkscape:export-xdpi="300"
       inkscape:export-ydpi="300" />
    <ellipse
       ry="1.4953562"
       rx="0.46729878"
       cy="94.495583"
       cx="-99.900024"
       id="ellipse6597"
       style="opacity:1;fill:#ffff00;fill-opacity:1;stroke:none;stroke-width:0.52419883;stroke-linecap:round;stroke-linejoin:round;stroke-miterlimit:4;stroke-dasharray:none;stroke-opacity:1"
       transform="rotate(-51.193038)"
       inkscape:export-xdpi="300"
       inkscape:export-ydpi="300" />
    <ellipse
       transform="rotate(-40.709666)"
       style="opacity:1;fill:#ffff00;fill-opacity:1;stroke:none;stroke-width:0.52419883;stroke-linecap:round;stroke-linejoin:round;stroke-miterlimit:4;stroke-dasharray:none;stroke-opacity:1"
       id="ellipse6599"
       cx="-71.825706"
       cy="143.9565"
       rx="0.46729878"
       ry="1.4953562"
       inkscape:export-xdpi="300"
       inkscape:export-ydpi="300" />
    <ellipse
       ry="1.4953562"
       rx="0.46729878"
       cy="145.65353"
       cx="-57.593174"
       id="ellipse6601"
       style="opacity:1;fill:#ffff00;fill-opacity:1;stroke:none;stroke-width:0.52419883;stroke-linecap:round;stroke-linejoin:round;stroke-miterlimit:4;stroke-dasharray:none;stroke-opacity:1"
       transform="rotate(-40.709666)"
       inkscape:export-xdpi="300"
       inkscape:export-ydpi="300" />
    <ellipse
       transform="rotate(-40.709666)"
       style="opacity:1;fill:#ffff00;fill-opacity:1;stroke:none;stroke-width:0.52419883;stroke-linecap:round;stroke-linejoin:round;stroke-miterlimit:4;stroke-dasharray:none;stroke-opacity:1"
       id="ellipse6603"
       cx="-57.593174"
       cy="145.65353"
       rx="0.46729878"
       ry="1.4953562"
       inkscape:export-xdpi="300"
       inkscape:export-ydpi="300" />
    <ellipse
       ry="1.4953562"
       rx="0.46729878"
       cy="148.0419"
       cx="-64.443176"
       id="ellipse6605"
       style="opacity:1;fill:#ffff00;fill-opacity:1;stroke:none;stroke-width:0.52419883;stroke-linecap:round;stroke-linejoin:round;stroke-miterlimit:4;stroke-dasharray:none;stroke-opacity:1"
       transform="rotate(-40.709666)"
       inkscape:export-xdpi="300"
       inkscape:export-ydpi="300" />
    <ellipse
       style="opacity:1;fill:#ffff00;fill-opacity:1;stroke:none;stroke-width:0.52419883;stroke-linecap:round;stroke-linejoin:round;stroke-miterlimit:4;stroke-dasharray:none;stroke-opacity:1"
       id="ellipse6607"
       cx="127.51551"
       cy="40.863861"
       rx="0.46729878"
       ry="1.4953562"
       transform="rotate(51.970491)"
       inkscape:export-xdpi="300"
       inkscape:export-ydpi="300" />
    <ellipse
       transform="rotate(51.970491)"
       ry="1.4953562"
       rx="0.46729878"
       cy="39.040138"
       cx="134.73082"
       id="ellipse6609"
       style="opacity:1;fill:#ffff00;fill-opacity:1;stroke:none;stroke-width:0.52419883;stroke-linecap:round;stroke-linejoin:round;stroke-miterlimit:4;stroke-dasharray:none;stroke-opacity:1"
       inkscape:export-xdpi="300"
       inkscape:export-ydpi="300" />
    <ellipse
       style="opacity:1;fill:#ffff00;fill-opacity:1;stroke:none;stroke-width:0.52419883;stroke-linecap:round;stroke-linejoin:round;stroke-miterlimit:4;stroke-dasharray:none;stroke-opacity:1"
       id="ellipse6611"
       cx="124.54713"
       cy="34.682953"
       rx="0.46729878"
       ry="1.4953562"
       transform="rotate(51.970491)"
       inkscape:export-xdpi="300"
       inkscape:export-ydpi="300" />
    <path
       style="opacity:1;fill:#fee808;fill-opacity:1;stroke:none;stroke-width:0.2647604;stroke-linecap:round;stroke-linejoin:round;stroke-miterlimit:4;stroke-dasharray:none;stroke-opacity:1"
       d="m 33.680968,154.53491 c -1.443332,-3.16719 -3.151764,-3.80268 -5.068936,-1.88551 l -1.033976,1.03398 -0.265717,-1.71138 c -0.297868,-1.91848 -0.931597,-3.05034 -1.570579,-2.80514 -0.299668,0.11493 -0.413372,-0.006 -0.413372,-0.43785 0,-0.32806 -0.328255,-0.98965 -0.729452,-1.47023 l -0.729454,-0.87377 -1.581083,0.53376 c -0.869595,0.29359 -1.617377,0.49749 -1.661736,0.45313 -0.04436,-0.0444 0.176744,-0.61046 0.491335,-1.258 l 0.571989,-1.17731 -0.695384,-1.10156 c -0.596119,-0.94432 -0.825208,-1.10157 -1.604836,-1.10157 -0.970644,0 -2.256047,-0.47253 -2.256047,-0.82936 0,-0.11868 0.311802,-0.42014 0.692895,-0.66983 0.636082,-0.41677 0.652337,-0.46992 0.198257,-0.64837 -0.27205,-0.10702 -0.910977,-0.21179 -1.419839,-0.23306 -0.508863,-0.0213 -1.320729,-0.18198 -1.804144,-0.35702 l -0.878941,-0.31832 1.5398,-0.70413 c 0.846891,-0.38728 2.1578,-0.84005 2.913133,-1.00616 1.211895,-0.26655 1.499857,-0.46965 2.449676,-1.72769 1.399284,-1.85332 1.596045,-2.4232 1.596045,-4.62256 0,-1.63443 -0.576921,-3.95547 -1.770572,-7.12323 -0.08217,-0.21809 0.193361,-0.0825 0.612322,0.30134 0.418953,0.38381 1.237554,0.93796 1.81911,1.23142 0.581558,0.29347 1.406759,0.90132 1.833781,1.3508 0.888799,0.93555 1.206179,1.02309 1.206179,0.33262 0,-0.77492 0.29366,-0.85936 0.803548,-0.23108 l 0.473569,0.58353 0.194547,-0.77239 0.194547,-0.7724 0.45938,0.56732 0.459383,0.5673 0.335681,-0.8104 c 0.192172,-0.46397 0.321792,-1.76191 0.303192,-3.03607 -0.03198,-2.19168 0.275191,-3.8543 0.556666,-3.01281 1.861576,5.56525 1.881835,5.60926 2.779836,6.03926 0.777386,0.37224 0.955494,0.37583 1.568926,0.0314 0.812586,-0.45609 1.374067,-2.25126 1.382029,-4.41862 0.0026,-0.76329 0.124045,-1.38782 0.269442,-1.38782 0.159257,0 0.264347,1.09145 0.264347,2.74562 v 2.74561 l 0.812346,0.11931 c 0.736653,0.10815 0.908452,-0.0178 1.843728,-1.3578 0.56726,-0.81237 1.331187,-1.8339 1.697607,-2.27007 l 0.666231,-0.79303 0.0016,0.83719 c 5.26e-4,0.46048 -0.236606,1.39224 -0.527387,2.0706 -0.32378,0.75536 -0.528686,1.82074 -0.528686,2.74885 0,1.48428 0.02104,1.5273 1.022998,2.09042 l 1.022993,0.57496 1.529655,-0.52627 c 0.841316,-0.28946 1.689467,-0.52628 1.884789,-0.52628 0.527577,0 0.433055,1.14718 -0.202264,2.45486 l -0.557393,1.14729 0.808873,1.60238 0.808877,1.60237 3.091177,0.34452 3.091181,0.34455 -0.765298,0.61691 c -0.420921,0.3393 -1.241127,0.74111 -1.822686,0.8929 -2.613361,0.68214 -2.709231,0.74701 -3.935279,2.66334 -1.037214,1.62116 -1.150995,1.93776 -0.896896,2.49542 0.160068,0.3513 0.44617,0.63873 0.6358,0.63873 0.299816,0 0.892077,0.76904 0.892077,1.15835 0,0.0746 -0.621622,0.1717 -1.381385,0.21563 -1.161316,0.0673 -1.437358,0.18516 -1.732752,0.74076 -0.485058,0.91233 -0.241212,4.21286 0.453589,6.1394 0.9746,2.70237 0.83555,2.79888 -1.586758,1.10154 -2.541926,-1.78118 -3.899408,-2.0903 -5.317629,-1.21092 -1.625103,1.00762 -2.066209,1.5815 -2.066209,2.68805 0,1.68525 -0.471727,1.4813 -1.428153,-0.61743 z m 8.153941,-4.45863 c 0.54992,-0.78512 0.519926,-1.35738 -0.172353,-3.28785 l -0.583961,-1.62845 0.716081,-1.41532 c 0.393845,-0.77842 0.716081,-1.62958 0.716081,-1.89148 0,-0.85967 0.495877,-1.42832 1.644438,-1.88571 1.454715,-0.57933 2.056376,-1.13096 2.056376,-1.88539 0,-0.75432 -0.239497,-0.90189 -2.057013,-1.26737 -1.840337,-0.37006 -2.13271,-0.7889 -1.694458,-2.42747 0.442032,-1.65271 0.160641,-1.9632 -1.779247,-1.9632 -0.825458,0 -1.643582,-0.14282 -1.818048,-0.3172 -0.174468,-0.17448 -0.317213,-0.83654 -0.317213,-1.47128 0,-2.34327 -1.097736,-2.85123 -2.65767,-1.22977 -1.774532,1.8445 -2.56948,1.75128 -3.27891,-0.3846 -0.549328,-1.6539 -1.215668,-2.30045 -1.960185,-1.902 -0.581396,0.31117 -1.087086,1.75245 -1.089457,3.10514 -0.001,0.46213 -0.188158,1.02694 -0.416348,1.25512 -0.455338,0.45531 -0.686356,0.37969 -2.406928,-0.78793 -0.524039,-0.35561 -1.176657,-0.64658 -1.45026,-0.64658 -0.793835,0 -1.137346,1.08439 -0.78579,2.48054 0.718955,2.85523 0.46013,3.32699 -2.410951,4.39439 -2.900335,1.07829 -2.595103,2.49102 0.654343,3.02855 1.46054,0.24159 1.846251,0.93713 1.37704,2.48313 -0.204838,0.67492 -0.373714,1.37582 -0.37529,1.55755 -0.0055,0.63489 1.041112,1.3878 1.929196,1.3878 1.247169,0 1.730616,0.47543 2.007889,1.97451 0.236483,1.27853 0.987195,2.25501 1.733642,2.25501 0.180483,0 0.732338,-0.29485 1.226351,-0.65521 1.95305,-1.42466 2.04228,-1.4301 3.10907,-0.1899 1.082255,1.25824 1.38599,1.33351 2.343034,0.58069 0.943561,-0.74221 1.512014,-0.66452 2.901614,0.39654 1.398731,1.068 2.25597,1.16997 2.838927,0.33768 z"
       id="path6613"
       inkscape:connector-curvature="0"
       inkscape:export-xdpi="300"
       inkscape:export-ydpi="300" />
    <use
       inkscape:export-xdpi="300"
       inkscape:export-ydpi="300"
       id="use6696"
       inkscape:spray-origin="#path6300"
       xlink:href="#use6677"
       x="0"
       y="0"
       width="100%"
       height="100%"
       transform="rotate(10.896273,60.217203,281.10669)" />
    <use
       inkscape:export-xdpi="300"
       inkscape:export-ydpi="300"
       id="use6698"
       inkscape:spray-origin="#path6300"
       xlink:href="#use6677"
       x="0"
       y="0"
       width="100%"
       height="100%"
       transform="rotate(63.555717,33.032722,171.07925)" />
    <use
       inkscape:export-xdpi="300"
       inkscape:export-ydpi="300"
       id="use6700"
       inkscape:spray-origin="#path6300"
       xlink:href="#use6677"
       x="0"
       y="0"
       width="100%"
       height="100%"
       transform="rotate(4.6001684,41.046743,560.67847)" />
    <use
       inkscape:export-xdpi="300"
       inkscape:export-ydpi="300"
       id="use6702"
       inkscape:spray-origin="#path6300"
       xlink:href="#use6677"
       x="0"
       y="0"
       width="100%"
       height="100%"
       transform="rotate(133.65907,30.51961,154.38679)" />
    <use
       inkscape:export-xdpi="300"
       inkscape:export-ydpi="300"
       id="use6704"
       inkscape:spray-origin="#path6300"
       xlink:href="#use6677"
       x="0"
       y="0"
       width="100%"
       height="100%"
       transform="rotate(136.15272,23.373604,157.66371)" />
    <use
       inkscape:export-xdpi="300"
       inkscape:export-ydpi="300"
       id="use6706"
       inkscape:spray-origin="#path6300"
       xlink:href="#use6677"
       x="0"
       y="0"
       width="100%"
       height="100%"
       transform="rotate(-73.722234,34.129341,137.88237)" />
    <use
       inkscape:export-xdpi="300"
       inkscape:export-ydpi="300"
       id="use6708"
       inkscape:spray-origin="#path6300"
       xlink:href="#use6677"
       x="0"
       y="0"
       width="100%"
       height="100%"
       transform="rotate(29.457144,32.548873,173.86703)" />
    <use
       inkscape:export-xdpi="300"
       inkscape:export-ydpi="300"
       id="use6710"
       inkscape:spray-origin="#path6300"
       xlink:href="#use6677"
       x="0"
       y="0"
       width="100%"
       height="100%"
       transform="rotate(102.95611,21.033097,157.77654)" />
    <use
       inkscape:export-xdpi="300"
       inkscape:export-ydpi="300"
       id="use6712"
       inkscape:spray-origin="#path6300"
       xlink:href="#use6677"
       x="0"
       y="0"
       width="100%"
       height="100%"
       transform="rotate(-138.06223,26.006913,144.7223)" />
    <use
       inkscape:export-xdpi="300"
       inkscape:export-ydpi="300"
       id="use6714"
       inkscape:spray-origin="#path6300"
       xlink:href="#use6677"
       x="0"
       y="0"
       width="100%"
       height="100%"
       transform="rotate(-44.78889,11.922847,100.26021)" />
    <use
       inkscape:export-xdpi="300"
       inkscape:export-ydpi="300"
       id="use6716"
       inkscape:spray-origin="#path6300"
       xlink:href="#use6677"
       x="0"
       y="0"
       width="100%"
       height="100%"
       transform="rotate(1.128131,836.80763,1729.0058)" />
    <use
       inkscape:export-xdpi="300"
       inkscape:export-ydpi="300"
       id="use6718"
       inkscape:spray-origin="#path6300"
       xlink:href="#use6677"
       x="0"
       y="0"
       width="100%"
       height="100%"
       transform="rotate(-133.79726,24.551132,151.09317)" />
  </g>
</svg>
